<?xml version="1.0" encoding="utf-8"?>
<!-- Generator: Adobe Illustrator 12.0.1, SVG Export Plug-In . SVG Version: 6.00 Build 51448)  -->
<!DOCTYPE svg PUBLIC "-//W3C//DTD SVG 1.1//EN" "http://www.w3.org/Graphics/SVG/1.1/DTD/svg11.dtd" [
	<!ENTITY ns_svg "http://www.w3.org/2000/svg">
	<!ENTITY ns_xlink "http://www.w3.org/1999/xlink">
]>
<svg  version="1.1" xmlns="&ns_svg;" xmlns:xlink="&ns_xlink;" width="1502.4" height="360" viewBox="0 0 360 360"
	 overflow="visible" enable-background="new 0 0 360 360" xml:space="preserve">
<g id="Formee_Cross">
	<g>
		<polygon fill="#17154C" points="167.5,360 167.5,193.25 0,193.25 		"/>
		<g>
			<g>
				<path fill="#DA8F27" d="M10.083,197.167l153.333,153.666V197.167H10.083z M149.083,319.167L40.25,211.833h108.833V319.167z"/>
			</g>
		</g>
		<polygon fill="#B92025" points="144.583,309.5 50.5,215.75 144.583,215.75 		"/>
	</g>
	<g>
		<polygon fill="#17154C" points="192.5,360 192.5,193.25 360,193.25 		"/>
		<g>
			<g>
				<path fill="#DA8F27" d="M196.584,197.167v153.666l153.332-153.666H196.584z M210.917,211.833H319.75L210.917,319.167V211.833z"
					/>
			</g>
		</g>
		<polyline fill="#FFFFFF" points="215.417,309.5 309.5,215.75 215.417,215.75 		"/>
	</g>
	<g>
		<polygon fill="#17154C" points="167.5,0 167.5,166.75 0,166.75 		"/>
		<g>
			<g>
				<path fill="#DA8F27" d="M10.083,162.833h153.333V9.167L10.083,162.833z M149.083,148.167H40.25L149.083,40.833V148.167z"/>
			</g>
		</g>
		<polygon fill="#FFFFFF" points="144.583,50.5 50.5,144.25 144.583,144.25 		"/>
	</g>
	<g>
		<polygon fill="#17154C" points="192.5,0 192.5,166.75 360,166.75 		"/>
		<g>
			<g>
				<path fill="#DA8F27" d="M196.584,9.167v153.666h153.332L196.584,9.167z M210.917,40.833L319.75,148.167H210.917V40.833z"/>
			</g>
		</g>
		<polyline fill="#B92025" points="215.417,50.5 309.5,144.25 215.417,144.25 		"/>
	</g>
</g>
<g id="Shield">
	<path fill="#17154C" d="M215.943,84.857l-36.225-39.813l-36.027,39.813H45.304l49.335,49.335l0.113,105.021l84.976,84.936
		l86.962-87.596V134.421l48.671-49.563H215.943z"/>
	<path fill="#DA8F27" d="M54.958,88.823l90.528,0.011l34.269-37.854l34.441,37.854l91.657-0.011l-42.566,43.36l-0.572,0.583v0.817
		l0.004,101.292l-82.411,84.153l-81.552-81.503L98.75,132.609L54.958,88.823z"/>
	<polygon fill="#17154C" points="104.25,143.625 258.375,143.625 258.375,234 180.125,311.75 104.25,234 	"/>
	<polygon fill="#17154C" points="186.711,100.216 206.048,100.25 206.048,106.104 192.853,106.104 192.853,112.61 200.215,112.61 
		200.215,118.653 192.853,118.653 192.853,128.722 186.711,128.722 186.711,100.216 	"/>
	<polygon fill="#17154C" points="244.277,105.724 236.752,105.724 234.417,108.056 234.334,122.833 236.752,125.088 
		244.277,125.088 246.726,122.605 246.726,119.354 257.465,119.354 257.465,130.2 251.184,137.173 229.853,137.173 222.49,129.273 
		222.49,102.311 229.853,94.257 251.184,94.257 257.465,101.223 257.465,111.763 246.726,111.763 246.726,108.203 244.277,105.724 	
		"/>
	<polygon fill="#17154C" points="117.22,119.271 117.22,137.089 105.866,137.089 105.866,94.634 117.22,94.634 117.22,104.706 
		129.033,94.634 142.38,94.634 124.123,110.595 143.449,137.089 129.033,137.089 117.22,119.271 	"/>
	<g id="O">
		<g>
			<path fill="#17154C" d="M174.596,100.525h-12.887l-4.45,4.181v20.144l4.45,3.873h12.887l5.215-3.873v-20.144L174.596,100.525z
				 M172.125,123.156l-6.517-0.013l-1.383-1.084v-14.869l1.383-1.085h6.594l1.142,1.052l0.037,14.871L172.125,123.156z"/>
		</g>
	</g>
</g>
<g id="Emblem">
	<path fill="#17154C" d="M312.769,115.468c-0.979-0.386-1.824-0.948-2.561-1.685c-0.722-0.739-1.286-1.6-1.691-2.604
		c-0.411-1.004-0.603-2.081-0.603-3.248c0-1.159,0.191-2.247,0.603-3.254c0.405-1.012,0.97-1.887,1.691-2.622
		c0.736-0.732,1.582-1.317,2.561-1.74c0.978-0.435,2.029-0.644,3.177-0.644c1.163,0,2.228,0.209,3.208,0.644
		c0.985,0.422,1.823,1.007,2.531,1.74c0.72,0.735,1.277,1.61,1.691,2.622c0.396,1.008,0.617,2.096,0.617,3.254
		c0,1.167-0.222,2.243-0.617,3.248c-0.414,1.004-0.972,1.864-1.691,2.604c-0.708,0.736-1.546,1.299-2.531,1.685
		c-0.98,0.39-2.045,0.582-3.208,0.582C314.798,116.049,313.746,115.857,312.769,115.468z M318.433,114.324
		c0.765-0.368,1.426-0.864,1.985-1.485c0.559-0.622,1-1.358,1.31-2.204c0.316-0.846,0.473-1.739,0.473-2.68
		c0-0.96-0.156-1.861-0.473-2.71c-0.31-0.846-0.751-1.585-1.303-2.222c-0.544-0.627-1.198-1.129-1.963-1.5
		c-0.767-0.365-1.604-0.552-2.517-0.552c-0.896,0-1.719,0.187-2.485,0.552c-0.765,0.37-1.428,0.872-1.985,1.515
		c-0.561,0.643-1,1.391-1.312,2.224c-0.322,0.835-0.477,1.732-0.477,2.693c0,0.941,0.154,1.834,0.477,2.68
		c0.312,0.846,0.751,1.582,1.312,2.204c0.558,0.621,1.221,1.117,1.985,1.485c0.767,0.369,1.589,0.552,2.485,0.552
		C316.835,114.876,317.667,114.692,318.433,114.324z M316.651,103.324c0.715,0,1.338,0.188,1.854,0.555
		c0.522,0.369,0.781,0.946,0.781,1.718c0,0.534-0.163,1.023-0.492,1.479c-0.316,0.449-0.773,0.754-1.347,0.92l1.347,1.935
		c0.271,0.37,0.535,0.72,0.8,1.074c0.265,0.345,0.5,0.636,0.737,0.86v0.272h-1.959c-0.19,0-0.383-0.111-0.558-0.343
		c-0.177-0.231-0.367-0.537-0.565-0.911c-0.199-0.379-0.414-0.794-0.647-1.237c-0.237-0.456-0.495-0.889-0.759-1.315h-0.764v2.353
		c0,0.408,0.035,0.662,0.116,0.762c0.088,0.106,0.392,0.173,0.911,0.212v0.479h-4.03v-0.479c0.538-0.039,0.839-0.113,0.928-0.212
		c0.073-0.1,0.117-0.357,0.117-0.769v-5.943c0-0.386-0.044-0.64-0.132-0.747c-0.104-0.114-0.397-0.196-0.913-0.229v-0.434H316.651z
		 M315.813,107.752c0.544,0,0.898-0.213,1.089-0.644c0.206-0.43,0.302-0.904,0.302-1.415c0-0.674-0.125-1.145-0.369-1.413
		c-0.249-0.266-0.578-0.394-0.992-0.394h-0.764v3.865H315.813z"/>
	<g id="Fasces__x26__Axe">
		<path fill="#FFFFFF" d="M182.68,150.365c0,2.762,0,10.633,0,13.392c0,0,16.152,6.902,19.331,13.401
			c0,0.548-19.331-4.976-19.331-3.178v8.143v4.009c0,0.42-0.235,0.963-0.515,0.963h-3.773c-0.31,0-0.405-0.47-0.408-0.963V173.98
			c0-1.107-13.395,0.964-17.396,8.143c-0.555,0-5.939-2.211-5.939-14.358c0-9.525,4.141-15.193,4.969-15.74
			c0.416,0,9.389,10.216,15.608,10.216h2.207c0-2.762,0.551-9.113,0.551-11.875c0,0,0-0.967,2.21-0.967
			C182.4,149.398,182.68,150.365,182.68,150.365L182.68,150.365z"/>
		<path fill="#FFFFFF" d="M178.781,284.452c0.397-0.045,3.252,0,3.252,0c0.685-0.015,0.919,0.44,0.919,0.75c0,0.515,0,5.458,0,5.458
			c-0.015,2.296-4.969,2.198-4.969,0v-5.458C178.035,284.731,178.458,284.497,178.781,284.452L178.781,284.452z"/>
		<path fill="#FFFFFF" d="M188.96,276.435h1.597c0.553,0,0.817,0.398,0.817,0.94l0.007,4.312c0.008,0.669-0.376,0.985-0.786,0.985
			h-1.522c-0.553,0-0.868-0.426-0.868-0.985l0.008-4.369C188.212,276.758,188.418,276.435,188.96,276.435L188.96,276.435z"/>
		<path fill="#FFFFFF" d="M184.224,276.435h1.868c0.397,0,0.649,0.492,0.649,0.861v4.699c0.042,0.47-0.59,0.661-0.59,0.661
			l-1.793,0.016c-0.473,0-0.759-0.546-0.759-0.823v-4.531C183.622,276.698,183.944,276.435,184.224,276.435L184.224,276.435z"/>
		<path fill="#FFFFFF" d="M179.312,276.419h2c0.559,0,0.735,0.553,0.735,0.824v4.546c0,0.28-0.103,0.853-0.646,0.853l-2.111-0.008
			c0,0-0.526-0.169-0.548-0.845v-4.553C178.781,276.479,179.312,276.419,179.312,276.419L179.312,276.419z"/>
		<path fill="#FFFFFF" d="M174.729,276.419h1.935c0.55,0,0.688,0.553,0.688,0.824v4.701c0,0.271-0.413,0.689-0.688,0.689h-1.935
			c-0.279,0-0.817-0.212-0.817-0.764v-4.634C173.912,276.678,174.177,276.419,174.729,276.419L174.729,276.419z"/>
		<path fill="#FFFFFF" d="M169.837,276.435h1.934c0.449,0,0.691,0.44,0.691,0.721v4.531c0.019,0.691-0.265,0.955-0.691,0.97
			l-2.026,0.016c-0.275,0-0.736-0.228-0.739-0.985l0.003-4.575C169.009,276.56,169.565,276.435,169.837,276.435L169.837,276.435z"/>
		<path fill="#FFFFFF" d="M189.196,188.346h1.236c0.411,0,0.971,0.103,0.971,0.794v6.386c0,0.677-0.56,0.823-0.971,0.823h-1.236
			c-0.838,0.03-0.97-0.545-0.97-0.823v-6.495C188.227,188.346,188.638,188.346,189.196,188.346L189.196,188.346z"/>
		<path fill="#FFFFFF" d="M184.475,188.346l1.376-0.015c0,0,0.83,0,0.846,0.853v6.384c0,0-0.066,0.826-0.766,0.781h-1.324
			c-0.684,0-1.045-0.251-1.045-0.809v-6.532C183.577,188.286,184.475,188.346,184.475,188.346L184.475,188.346z"/>
		<path fill="#FFFFFF" d="M179.208,188.346l2.022-0.015c0.412,0,0.758,0.258,0.735,0.699v6.495c0,0.543-0.404,0.854-0.823,0.823
			h-1.788c0,0-0.699-0.169-0.703-0.823v-6.495C178.652,188.346,179.208,188.346,179.208,188.346L179.208,188.346z"/>
		<path fill="#FFFFFF" d="M174.832,188.346h1.655c0.449-0.037,0.843,0.008,0.832,0.685l-0.008,6.643
			c0,0.557-0.441,0.706-0.654,0.676h-2.048c-0.28,0-0.611-0.42-0.611-0.691L174,189.03C174,188.346,174.556,188.346,174.832,188.346
			L174.832,188.346z"/>
		<path fill="#FFFFFF" d="M169.837,188.346l1.784-0.015c0.475-0.022,0.85,0.132,0.842,0.699v6.495c0,0.543-0.448,0.868-0.798,0.823
			h-1.99c-0.606,0-0.669-0.545-0.669-0.823v-6.495C169.006,188.346,169.565,188.346,169.837,188.346L169.837,188.346z"/>
		<path fill="#FFFFFF" d="M168.042,197.313h23.612c0.411,0,0.97,0.42,0.97,0.691v2.766c0,0.411-0.559,0.963-0.97,0.963h-23.612
			c-0.275,0-0.69-0.552-0.69-0.963v-2.766C167.352,197.732,167.767,197.313,168.042,197.313L168.042,197.313z"/>
		<path fill="#FFFFFF" d="M168.595,270.785h23.06c0.411,0,0.97,0.545,0.97,0.824v2.618c0,0.561-0.559,0.971-0.97,0.971h-23.06
			c-0.553,0-0.828-0.41-0.828-0.971v-2.618C167.767,271.33,168.042,270.785,168.595,270.785L168.595,270.785z"/>
		<polygon fill="#FFFFFF" points="188.212,202.977 191.381,202.977 191.381,269.417 188.212,269.417 188.212,202.977 		"/>
		<polygon fill="#FFFFFF" points="183.431,202.977 186.622,202.977 186.622,269.462 183.431,269.462 183.431,202.977 		"/>
		<polygon fill="#FFFFFF" points="178.675,202.977 181.988,202.977 181.988,269.536 178.631,269.521 178.675,202.977 		"/>
		<path fill="#FFFFFF" d="M169.006,202.977h3.457v53.165c-1.654-0.552-1.654-0.28-3.457-0.972V202.977L169.006,202.977z"/>
		<polygon fill="#FFFFFF" points="173.96,202.977 177.27,202.977 177.226,269.536 173.875,269.536 173.875,259.245 174.585,258.891 
			173.875,257.171 173.96,230.316 173.96,202.977 		"/>
		<path fill="#FFFFFF" d="M169.978,265.807c-0.14-3.729,1.518-5.385,2.485-5.936v9.665l-3.446,0.008l-0.011-3.187L169.978,265.807
			L169.978,265.807z"/>
	</g>
	<g id="Sword">
		<path fill="#FFFFFF" d="M135.454,191.45c2.52-1.501,3.763-3.172,4.281-5.937c1.007-0.378,1.519,1.523,1.519,2.494
			c-1.795,1.235-2.067,2.06-3.038,4C137.249,192.553,135.038,192.553,135.454,191.45L135.454,191.45z"/>
		<path fill="#FFFFFF" d="M131.478,188.522c2.351-2.206,3.52-3.016,4.251-5.849c0.552-0.827,2.924,0.658,2.486,2.214
			c0.192,1.466-1.853,3.767-3.729,5.386C132.968,191.199,131.067,189.082,131.478,188.522L131.478,188.522z"/>
		<path fill="#FFFFFF" d="M127.583,185.305c2.41-2.15,2.502-2.432,4.02-5.197c0.416-1.239,3.71,0.224,2.607,2.016
			c-0.765,2.516-1.243,3.038-3.869,5.252C128.75,188.405,126.83,186.191,127.583,185.305L127.583,185.305z"/>
		<path fill="#FFFFFF" d="M124.546,182.123c2.761-2.211,2.486-2.479,3.453-4.277c0.552-0.968,2.759,0.275,2.343,1.523
			c-1.095,2.289-1.52,2.754-3.586,4.548C125.789,184.888,123.579,183.091,124.546,182.123L124.546,182.123z"/>
		<path fill="#FFFFFF" d="M121.784,179.369c1.244-1.248,2.583-2.586,2.958-3.954c0.566-0.563,2.397,0.372,2.147,1.176
			c-0.309,1.861-1.504,3.141-3.579,4.388C122.689,181.414,121.372,179.912,121.784,179.369L121.784,179.369z"/>
		<path fill="#FFFFFF" d="M122.633,176.967c-1.286,1.589-2.611,1.721-3.688,0.739c-1.457-1.316-1.75-2.534-0.596-4.027
			c1.203-1.552,2.588-1.302,4.049-0.25C123.439,174.175,123.914,175.382,122.633,176.967L122.633,176.967z"/>
		<path fill="#FFFFFF" d="M148.852,176.187c-0.694-0.827-1.247,0.412-1.247,0.412c0,4.008-0.963,8.289-3.173,11.187
			c-0.559,0.56-0.559,0.56,0,1.104c0.69,0.411,2.008,0.162,2.144,1.684c0.552,0,0.894-0.435,0.894-0.435
			c2.483-4.008,4.693-5.252,8.698-6.771c0.416,0,0.963-0.695,0.416-1.246C154.372,180.607,150.368,178.121,148.852,176.187
			L148.852,176.187z"/>
		<path fill="#FFFFFF" d="M127.999,202.977c-0.416-0.685,0.552-1.244,0.824-1.244c3.733-0.963,7.184-3.177,9.393-6.487
			c0.552-0.411,0.552-0.411,0.971-0.411c1.099,1.515,1.099,1.515,2.483,1.926c0.276,0.553,0,0.973,0,0.973
			c-3.177,3.448-4.697,6.215-4.697,10.215c0,0.553-0.416,1.244-0.966,0.691C134.211,206.977,130.342,203.947,127.999,202.977
			L127.999,202.977z"/>
		<path fill="#FFFFFF" d="M145.395,194.553c-0.931,1.266-3.038,1.421-4.28,0.59c-1.379-1.516-1.379-2.797-0.691-4.045
			c0.97-1.516,3.111-1.678,4.354-0.707C146.021,191.214,146.451,193.112,145.395,194.553L145.395,194.553z"/>
		<polygon fill="#FFFFFF" points="192.347,228.389 215.684,246.749 216.236,247.308 216.788,247.719 217.206,248.132 
			217.619,248.542 218.03,248.955 218.311,249.373 218.581,249.785 218.854,250.484 219.002,250.756 219.134,251.169 
			219.273,251.44 219.273,251.722 219.273,252 219.134,252.278 219.134,252.413 218.854,252.692 218.722,252.823 218.442,252.823 
			218.161,252.963 217.751,252.963 217.338,252.963 217.06,252.963 216.375,252.823 215.823,252.692 215.404,252.552 
			214.853,252.413 214.44,252.278 213.883,252 213.47,251.722 212.778,251.169 202.011,242.745 192.347,235.016 192.347,228.389 		
			"/>
		<polygon fill="#FFFFFF" points="168.042,215.679 145.122,197.598 145.122,197.451 145.122,197.172 145.259,196.9 145.395,196.628 
			145.532,196.349 145.81,196.068 145.951,195.804 146.362,195.384 146.642,195.104 146.778,194.834 147.054,194.687 
			147.329,194.413 147.605,194.274 147.746,194.143 148.157,193.861 157.55,201.041 168.042,209.191 168.042,215.679 		"/>
	</g>
	<g id="Anchor">
		<path fill="#FFFFFF" d="M198.832,189.582c-0.543-0.691,0-2.207,0.973-2.487c0.822-0.963,2.485-0.963,3.456,0
			c1.096,1.251,0.544,2.487-0.426,3.457c-1.237,0.824-2.752,0.824-3.443-0.412L198.832,189.582L198.832,189.582z"/>
		<path fill="#FFFFFF" d="M217.472,212.92c-0.684-1.522-0.684-2.767,0.418-3.729c1.112-0.691,2.767-0.691,3.318,0.552
			c0.69,0.971,0.69,2.625-0.552,3.45C219.685,214.164,218.442,213.611,217.472,212.92L217.472,212.92z"/>
		<polygon fill="#FFFFFF" points="168.042,235.979 153.406,248.41 152.578,249.234 152.299,250.057 152.299,251.029 152.713,252 
			153.266,252.963 154.097,253.928 155.063,254.898 156.858,256 158.099,256.561 159.341,256.825 160.587,256.973 161.687,256.825 
			162.794,256.281 163.625,255.457 164.589,253.383 165.557,253.383 165.836,253.928 166.111,254.346 166.523,254.752 
			166.799,255.17 167.075,255.457 167.491,255.861 167.767,256 168.263,256.339 168.778,256.604 169.286,256.825 169.697,256.973 
			170.212,257.149 170.643,257.288 171.352,257.515 172.463,257.635 172.735,258.349 172.188,258.487 171.801,258.664 
			171.352,258.898 170.94,259.18 170.665,259.458 170.249,259.871 169.978,260.15 169.565,260.834 169.286,261.252 169.149,261.665 
			168.87,262.217 168.733,262.769 168.595,263.327 168.595,264.011 168.595,264.842 167.715,265.299 167.767,265.395 
			166.935,264.842 166.245,264.284 165.557,264.011 164.725,263.593 163.901,263.458 163.209,263.327 162.382,263.18 
			161.275,263.048 160.587,263.048 159.896,263.048 159.341,263.048 158.789,263.048 158.238,263.048 157.685,262.901 
			157.13,262.636 156.031,262.077 155.063,261.252 154.097,260.422 153.129,259.59 152.162,258.767 151.338,257.943 
			150.368,257.112 149.124,256 148.296,255.309 147.469,254.619 146.642,254.074 145.81,253.654 144.983,253.236 144.292,253.103 
			143.188,252.963 141.945,251.853 142.222,251.169 142.357,250.346 142.357,249.515 142.222,248.688 141.945,247.851 
			141.669,247.026 141.254,246.203 140.423,244.82 139.871,243.85 139.458,242.88 138.904,241.775 138.356,240.813 137.937,239.709 
			137.524,238.598 137.249,236.803 137.113,236.392 137.249,235.848 137.249,235.287 137.389,234.596 137.664,234.045 
			137.805,233.361 137.937,232.67 138.08,231.558 138.216,230.728 138.216,229.904 138.216,229.08 138.08,228.249 137.937,227.551 
			137.664,226.727 136.972,225.344 137.249,224.381 137.805,224.381 138.356,224.381 138.904,224.381 139.458,224.239 
			139.871,224.107 140.423,223.961 140.842,223.697 141.529,223.416 141.945,223.137 142.357,222.865 142.772,222.585 
			143.049,222.306 143.46,221.894 143.873,221.622 144.432,220.931 145.395,221.343 145.395,222.032 145.395,222.725 
			145.395,223.276 145.532,223.828 145.532,224.52 145.671,225.072 145.81,225.622 146.086,226.446 146.362,227.005 
			146.502,227.551 146.778,228.109 147.054,228.521 147.469,229.08 147.746,229.633 148.437,230.316 148.157,231.008 
			146.362,231.155 145.122,231.7 144.152,232.39 143.46,233.361 143.049,234.464 142.913,235.848 143.049,237.223 143.604,239.158 
			144.016,240.539 144.703,241.644 145.532,242.599 146.362,243.438 147.19,243.85 148.021,243.989 149.4,243.438 159.069,235.979 
			168.042,228.801 168.042,235.979 		"/>
		<g>
			<g>
				<path fill="#FFFFFF" d="M232.8,189.729l-0.685-1.943l-1.794-2.898l-1.521-1.519l-1.663-1.246l-1.648-0.824l-1.662-0.415
					l-1.646-0.141l-1.662,0.141l-1.516,0.415l-2.214,1.243l-1.244,0.963l-0.97,1.252l-0.825,1.375l-0.412,1.522l-0.146,1.515
					l0.146,1.662l1.104,2.487l-4.36,2.989l-0.061-0.091l-0.279-0.413l-0.552-0.699l-0.543-0.552l-0.973-1.102l-0.691-0.691
					l-0.691-0.561l-0.823-0.545l-0.691-0.418l-0.692-0.139h-0.55l-0.698,0.278l-0.414,0.278l-0.131,0.273v0.418v0.414l0.131,0.559
					l0.141,0.543l0.273,0.552l0.426,0.971l0.412,0.545l0.271,0.699l0.412,0.544l0.419,0.699l0.412,0.553l0.279,0.542l0.545,0.56
					l-13.665,10.628v7.466l17.122-13.672l0.14,0.271l0.411,0.281l0.273,0.41l0.559,0.413l0.411,0.552l0.552,0.551l0.553,0.552
					l0.823,0.699l0.692,0.412l0.558,0.412l0.552,0.412l0.552,0.146l0.552,0.133l0.419-0.133l0.691-0.42l0.413-0.279l0.132-0.412
					l0.139-0.551l-0.139-0.691l-0.279-0.691l-0.266-0.823l-0.418-0.691l-0.692-1.251l-0.552-0.691l-0.412-0.545l-0.411-0.551
					l-0.28-0.28l0.134-0.14l0.146-0.132l0.271-0.279l0.14-0.28l0.272-0.132l0.279-0.279l0.271-0.281l0.281-0.271l0.278-0.272
					l0.273-0.28l0.271-0.131l0.146-0.279l0.266-0.143l0.147-0.277l0.271-0.271l1.523,1.233l1.654,0.839l1.656,0.413l1.662,0.132
					l1.655-0.132l1.521-0.561l1.515-0.691l1.796-1.515l0.963-1.234l0.699-1.53l0.545-1.515v-1.656L232.8,189.729z M226.453,193.583
					c-1.244,1.521-2.349,1.521-4.011,0.42c-0.544,0,0.429-1.657-0.544-2.905c-0.69-1.516-2.765-0.546-2.765-0.958
					c0-1.249,0-2.765,1.522-3.588c1.786-1.391,4.553-0.973,6.215,1.234C228.107,189.582,227.834,192.346,226.453,193.583z"/>
			</g>
		</g>
	</g>
</g>
</svg>
