<?xml version="1.0" encoding="UTF-8" standalone="no"?>
<!-- Generator: Adobe Illustrator 12.0.1, SVG Export Plug-In . SVG Version: 6.00 Build 51448)  -->

<svg
   xmlns:dc="http://purl.org/dc/elements/1.1/"
   xmlns:cc="http://creativecommons.org/ns#"
   xmlns:rdf="http://www.w3.org/1999/02/22-rdf-syntax-ns#"
   xmlns:svg="http://www.w3.org/2000/svg"
   xmlns="http://www.w3.org/2000/svg"
   xmlns:sodipodi="http://sodipodi.sourceforge.net/DTD/sodipodi-0.dtd"
   xmlns:inkscape="http://www.inkscape.org/namespaces/inkscape"
   version="1.1"
   width="1502.4"
   height="360"
   viewBox="0 0 360 360"
   overflow="visible"
   enable-background="new 0 0 360 360"
   xml:space="preserve"
   id="svg3178"
   inkscape:version="0.48.2 r9819"
   sodipodi:docname="koc2.png"><metadata
   id="metadata3331"><rdf:RDF><cc:Work
       rdf:about=""><dc:format>image/svg+xml</dc:format><dc:type
         rdf:resource="http://purl.org/dc/dcmitype/StillImage" /><dc:title></dc:title></cc:Work></rdf:RDF></metadata><defs
   id="defs3329" /><sodipodi:namedview
   pagecolor="#ffffff"
   bordercolor="#666666"
   borderopacity="1"
   objecttolerance="10"
   gridtolerance="10"
   guidetolerance="10"
   inkscape:pageopacity="0"
   inkscape:pageshadow="2"
   inkscape:window-width="1920"
   inkscape:window-height="1073"
   id="namedview3327"
   showgrid="false"
   inkscape:zoom="1.0815571"
   inkscape:cx="785.3148"
   inkscape:cy="106.03257"
   inkscape:window-x="1287"
   inkscape:window-y="0"
   inkscape:window-maximized="0"
   inkscape:current-layer="svg3178" />
<g
   id="Formee_Cross"
   transform="translate(-571.40889,1.3075718)">
	<g
   id="g3181">
		<polygon
   points="167.5,193.25 0,193.25 167.5,360 "
   id="polygon3183"
   style="fill:#17154c" />
		<g
   id="g3185">
			<g
   id="g3187">
				<path
   d="M 10.083,197.167 163.416,350.833 V 197.167 H 10.083 z m 139,122 L 40.25,211.833 h 108.833 v 107.334 z"
   id="path3189"
   inkscape:connector-curvature="0"
   style="fill:#da8f27" />
			</g>
		</g>
		<polygon
   points="50.5,215.75 144.583,215.75 144.583,309.5 "
   id="polygon3191"
   style="fill:#b92025" />
	</g>
	<g
   id="g3193">
		<polygon
   points="192.5,193.25 360,193.25 192.5,360 "
   id="polygon3195"
   style="fill:#17154c" />
		<g
   id="g3197">
			<g
   id="g3199">
				<path
   d="M 196.584,197.167 V 350.833 L 349.916,197.167 H 196.584 z m 14.333,14.666 H 319.75 L 210.917,319.167 V 211.833 z"
   id="path3201"
   inkscape:connector-curvature="0"
   style="fill:#da8f27" />
			</g>
		</g>
		<polyline
   points="215.417,309.5 309.5,215.75 215.417,215.75   "
   id="polyline3203"
   style="fill:#ffffff" />
	</g>
	<g
   id="g3205">
		<polygon
   points="167.5,166.75 0,166.75 167.5,0 "
   id="polygon3207"
   style="fill:#17154c" />
		<g
   id="g3209">
			<g
   id="g3211">
				<path
   d="M 10.083,162.833 H 163.416 V 9.167 L 10.083,162.833 z m 139,-14.666 H 40.25 L 149.083,40.833 v 107.334 z"
   id="path3213"
   inkscape:connector-curvature="0"
   style="fill:#da8f27" />
			</g>
		</g>
		<polygon
   points="50.5,144.25 144.583,144.25 144.583,50.5 "
   id="polygon3215"
   style="fill:#ffffff" />
	</g>
	<g
   id="g3217">
		<polygon
   points="192.5,166.75 360,166.75 192.5,0 "
   id="polygon3219"
   style="fill:#17154c" />
		<g
   id="g3221">
			<g
   id="g3223">
				<path
   d="M 196.584,9.167 V 162.833 H 349.916 L 196.584,9.167 z M 210.917,40.833 319.75,148.167 H 210.917 V 40.833 z"
   id="path3225"
   inkscape:connector-curvature="0"
   style="fill:#da8f27" />
			</g>
		</g>
		<polyline
   points="215.417,50.5 309.5,144.25 215.417,144.25   "
   id="polyline3227"
   style="fill:#b92025" />
	</g>
</g>
<g
   id="Shield"
   transform="translate(-570.10132,-2.6151437)">
	<path
   d="M 215.943,84.857 179.718,45.044 143.691,84.857 H 45.304 l 49.335,49.335 0.113,105.021 84.976,84.936 86.962,-87.596 V 134.421 l 48.671,-49.563 h -99.418 z"
   id="path3230"
   inkscape:connector-curvature="0"
   style="fill:#17154c" />
	<path
   d="m 54.958,88.823 90.528,0.011 34.269,-37.854 34.441,37.854 91.657,-0.011 -42.566,43.36 -0.572,0.583 v 0.817 l 0.004,101.292 -82.411,84.153 L 98.756,237.525 98.75,132.609 54.958,88.823 z"
   id="path3232"
   inkscape:connector-curvature="0"
   style="fill:#da8f27" />
	<polygon
   points="180.125,311.75 104.25,234 104.25,143.625 258.375,143.625 258.375,234 "
   id="polygon3234"
   style="fill:#17154c" />
	<polygon
   points="192.853,106.104 192.853,112.61 200.215,112.61 200.215,118.653 192.853,118.653 192.853,128.722 186.711,128.722 186.711,100.216 186.711,100.216 206.048,100.25 206.048,106.104 "
   id="polygon3236"
   style="fill:#17154c" />
	<polygon
   points="234.334,122.833 236.752,125.088 244.277,125.088 246.726,122.605 246.726,119.354 257.465,119.354 257.465,130.2 251.184,137.173 229.853,137.173 222.49,129.273 222.49,102.311 229.853,94.257 251.184,94.257 257.465,101.223 257.465,111.763 246.726,111.763 246.726,108.203 244.277,105.724 244.277,105.724 236.752,105.724 234.417,108.056 "
   id="polygon3238"
   style="fill:#17154c" />
	<polygon
   points="105.866,94.634 117.22,94.634 117.22,104.706 129.033,94.634 142.38,94.634 124.123,110.595 143.449,137.089 129.033,137.089 117.22,119.271 117.22,119.271 117.22,137.089 105.866,137.089 "
   id="polygon3240"
   style="fill:#17154c" />
	<g
   id="O">
		<g
   id="g3243">
			<path
   d="m 174.596,100.525 h -12.887 l -4.45,4.181 v 20.144 l 4.45,3.873 h 12.887 l 5.215,-3.873 v -20.144 l -5.215,-4.181 z m -2.471,22.631 -6.517,-0.013 -1.383,-1.084 V 107.19 l 1.383,-1.085 h 6.594 l 1.142,1.052 0.037,14.871 -1.256,1.128 z"
   id="path3245"
   inkscape:connector-curvature="0"
   style="fill:#17154c" />
		</g>
	</g>
</g>
<g
   id="Emblem"
   transform="translate(-568.79375,-4.8059457e-7)">
	<path
   d="m 312.769,115.468 c -0.979,-0.386 -1.824,-0.948 -2.561,-1.685 -0.722,-0.739 -1.286,-1.6 -1.691,-2.604 -0.411,-1.004 -0.603,-2.081 -0.603,-3.248 0,-1.159 0.191,-2.247 0.603,-3.254 0.405,-1.012 0.97,-1.887 1.691,-2.622 0.736,-0.732 1.582,-1.317 2.561,-1.74 0.978,-0.435 2.029,-0.644 3.177,-0.644 1.163,0 2.228,0.209 3.208,0.644 0.985,0.422 1.823,1.007 2.531,1.74 0.72,0.735 1.277,1.61 1.691,2.622 0.396,1.008 0.617,2.096 0.617,3.254 0,1.167 -0.222,2.243 -0.617,3.248 -0.414,1.004 -0.972,1.864 -1.691,2.604 -0.708,0.736 -1.546,1.299 -2.531,1.685 -0.98,0.39 -2.045,0.582 -3.208,0.582 -1.148,-10e-4 -2.2,-0.193 -3.177,-0.582 z m 5.664,-1.144 c 0.765,-0.368 1.426,-0.864 1.985,-1.485 0.559,-0.622 1,-1.358 1.31,-2.204 0.316,-0.846 0.473,-1.739 0.473,-2.68 0,-0.96 -0.156,-1.861 -0.473,-2.71 -0.31,-0.846 -0.751,-1.585 -1.303,-2.222 -0.544,-0.627 -1.198,-1.129 -1.963,-1.5 -0.767,-0.365 -1.604,-0.552 -2.517,-0.552 -0.896,0 -1.719,0.187 -2.485,0.552 -0.765,0.37 -1.428,0.872 -1.985,1.515 -0.561,0.643 -1,1.391 -1.312,2.224 -0.322,0.835 -0.477,1.732 -0.477,2.693 0,0.941 0.154,1.834 0.477,2.68 0.312,0.846 0.751,1.582 1.312,2.204 0.558,0.621 1.221,1.117 1.985,1.485 0.767,0.369 1.589,0.552 2.485,0.552 0.89,0 1.722,-0.184 2.488,-0.552 z m -1.782,-11 c 0.715,0 1.338,0.188 1.854,0.555 0.522,0.369 0.781,0.946 0.781,1.718 0,0.534 -0.163,1.023 -0.492,1.479 -0.316,0.449 -0.773,0.754 -1.347,0.92 l 1.347,1.935 c 0.271,0.37 0.535,0.72 0.8,1.074 0.265,0.345 0.5,0.636 0.737,0.86 v 0.272 h -1.959 c -0.19,0 -0.383,-0.111 -0.558,-0.343 -0.177,-0.231 -0.367,-0.537 -0.565,-0.911 -0.199,-0.379 -0.414,-0.794 -0.647,-1.237 -0.237,-0.456 -0.495,-0.889 -0.759,-1.315 h -0.764 v 2.353 c 0,0.408 0.035,0.662 0.116,0.762 0.088,0.106 0.392,0.173 0.911,0.212 v 0.479 h -4.03 v -0.479 c 0.538,-0.039 0.839,-0.113 0.928,-0.212 0.073,-0.1 0.117,-0.357 0.117,-0.769 v -5.943 c 0,-0.386 -0.044,-0.64 -0.132,-0.747 -0.104,-0.114 -0.397,-0.196 -0.913,-0.229 v -0.434 h 4.575 z m -0.838,4.428 c 0.544,0 0.898,-0.213 1.089,-0.644 0.206,-0.43 0.302,-0.904 0.302,-1.415 0,-0.674 -0.125,-1.145 -0.369,-1.413 -0.249,-0.266 -0.578,-0.394 -0.992,-0.394 h -0.764 v 3.865 h 0.734 z"
   id="path3248"
   inkscape:connector-curvature="0"
   style="fill:#17154c" />
	<g
   id="Fasces__x26__Axe">
		<path
   d="m 182.68,150.365 c 0,2.762 0,10.633 0,13.392 0,0 16.152,6.902 19.331,13.401 0,0.548 -19.331,-4.976 -19.331,-3.178 v 8.143 4.009 c 0,0.42 -0.235,0.963 -0.515,0.963 h -3.773 c -0.31,0 -0.405,-0.47 -0.408,-0.963 V 173.98 c 0,-1.107 -13.395,0.964 -17.396,8.143 -0.555,0 -5.939,-2.211 -5.939,-14.358 0,-9.525 4.141,-15.193 4.969,-15.74 0.416,0 9.389,10.216 15.608,10.216 h 2.207 c 0,-2.762 0.551,-9.113 0.551,-11.875 0,0 0,-0.967 2.21,-0.967 2.206,-0.001 2.486,0.966 2.486,0.966 l 0,0 z"
   id="path3251"
   inkscape:connector-curvature="0"
   style="fill:#ffffff" />
		<path
   d="m 178.781,284.452 c 0.397,-0.045 3.252,0 3.252,0 0.685,-0.015 0.919,0.44 0.919,0.75 0,0.515 0,5.458 0,5.458 -0.015,2.296 -4.969,2.198 -4.969,0 v -5.458 c 0.052,-0.471 0.475,-0.705 0.798,-0.75 l 0,0 z"
   id="path3253"
   inkscape:connector-curvature="0"
   style="fill:#ffffff" />
		<path
   d="m 188.96,276.435 h 1.597 c 0.553,0 0.817,0.398 0.817,0.94 l 0.007,4.312 c 0.008,0.669 -0.376,0.985 -0.786,0.985 h -1.522 c -0.553,0 -0.868,-0.426 -0.868,-0.985 l 0.008,-4.369 c -0.001,-0.56 0.205,-0.883 0.747,-0.883 l 0,0 z"
   id="path3255"
   inkscape:connector-curvature="0"
   style="fill:#ffffff" />
		<path
   d="m 184.224,276.435 h 1.868 c 0.397,0 0.649,0.492 0.649,0.861 v 4.699 c 0.042,0.47 -0.59,0.661 -0.59,0.661 l -1.793,0.016 c -0.473,0 -0.759,-0.546 -0.759,-0.823 v -4.531 c 0.023,-0.62 0.345,-0.883 0.625,-0.883 l 0,0 z"
   id="path3257"
   inkscape:connector-curvature="0"
   style="fill:#ffffff" />
		<path
   d="m 179.312,276.419 h 2 c 0.559,0 0.735,0.553 0.735,0.824 v 4.546 c 0,0.28 -0.103,0.853 -0.646,0.853 l -2.111,-0.008 c 0,0 -0.526,-0.169 -0.548,-0.845 v -4.553 c 0.039,-0.757 0.57,-0.817 0.57,-0.817 l 0,0 z"
   id="path3259"
   inkscape:connector-curvature="0"
   style="fill:#ffffff" />
		<path
   d="m 174.729,276.419 h 1.935 c 0.55,0 0.688,0.553 0.688,0.824 v 4.701 c 0,0.271 -0.413,0.689 -0.688,0.689 h -1.935 c -0.279,0 -0.817,-0.212 -0.817,-0.764 v -4.634 c 0,-0.557 0.265,-0.816 0.817,-0.816 l 0,0 z"
   id="path3261"
   inkscape:connector-curvature="0"
   style="fill:#ffffff" />
		<path
   d="m 169.837,276.435 h 1.934 c 0.449,0 0.691,0.44 0.691,0.721 v 4.531 c 0.019,0.691 -0.265,0.955 -0.691,0.97 l -2.026,0.016 c -0.275,0 -0.736,-0.228 -0.739,-0.985 l 0.003,-4.575 c 0,-0.553 0.556,-0.678 0.828,-0.678 l 0,0 z"
   id="path3263"
   inkscape:connector-curvature="0"
   style="fill:#ffffff" />
		<path
   d="m 189.196,188.346 h 1.236 c 0.411,0 0.971,0.103 0.971,0.794 v 6.386 c 0,0.677 -0.56,0.823 -0.971,0.823 h -1.236 c -0.838,0.03 -0.97,-0.545 -0.97,-0.823 v -6.495 c 0.001,-0.685 0.412,-0.685 0.97,-0.685 l 0,0 z"
   id="path3265"
   inkscape:connector-curvature="0"
   style="fill:#ffffff" />
		<path
   d="m 184.475,188.346 1.376,-0.015 c 0,0 0.83,0 0.846,0.853 v 6.384 c 0,0 -0.066,0.826 -0.766,0.781 h -1.324 c -0.684,0 -1.045,-0.251 -1.045,-0.809 v -6.532 c 0.015,-0.722 0.913,-0.662 0.913,-0.662 l 0,0 z"
   id="path3267"
   inkscape:connector-curvature="0"
   style="fill:#ffffff" />
		<path
   d="m 179.208,188.346 2.022,-0.015 c 0.412,0 0.758,0.258 0.735,0.699 v 6.495 c 0,0.543 -0.404,0.854 -0.823,0.823 h -1.788 c 0,0 -0.699,-0.169 -0.703,-0.823 v -6.495 c 10e-4,-0.684 0.557,-0.684 0.557,-0.684 l 0,0 z"
   id="path3269"
   inkscape:connector-curvature="0"
   style="fill:#ffffff" />
		<path
   d="m 174.832,188.346 h 1.655 c 0.449,-0.037 0.843,0.008 0.832,0.685 l -0.008,6.643 c 0,0.557 -0.441,0.706 -0.654,0.676 h -2.048 c -0.28,0 -0.611,-0.42 -0.611,-0.691 L 174,189.03 c 0,-0.684 0.556,-0.684 0.832,-0.684 l 0,0 z"
   id="path3271"
   inkscape:connector-curvature="0"
   style="fill:#ffffff" />
		<path
   d="m 169.837,188.346 1.784,-0.015 c 0.475,-0.022 0.85,0.132 0.842,0.699 v 6.495 c 0,0.543 -0.448,0.868 -0.798,0.823 h -1.99 c -0.606,0 -0.669,-0.545 -0.669,-0.823 v -6.495 c 0,-0.684 0.559,-0.684 0.831,-0.684 l 0,0 z"
   id="path3273"
   inkscape:connector-curvature="0"
   style="fill:#ffffff" />
		<path
   d="m 168.042,197.313 h 23.612 c 0.411,0 0.97,0.42 0.97,0.691 v 2.766 c 0,0.411 -0.559,0.963 -0.97,0.963 h -23.612 c -0.275,0 -0.69,-0.552 -0.69,-0.963 v -2.766 c 0,-0.272 0.415,-0.691 0.69,-0.691 l 0,0 z"
   id="path3275"
   inkscape:connector-curvature="0"
   style="fill:#ffffff" />
		<path
   d="m 168.595,270.785 h 23.06 c 0.411,0 0.97,0.545 0.97,0.824 v 2.618 c 0,0.561 -0.559,0.971 -0.97,0.971 h -23.06 c -0.553,0 -0.828,-0.41 -0.828,-0.971 v -2.618 c 0,-0.279 0.275,-0.824 0.828,-0.824 l 0,0 z"
   id="path3277"
   inkscape:connector-curvature="0"
   style="fill:#ffffff" />
		<polygon
   points="191.381,269.417 188.212,269.417 188.212,202.977 188.212,202.977 191.381,202.977 "
   id="polygon3279"
   style="fill:#ffffff" />
		<polygon
   points="186.622,269.462 183.431,269.462 183.431,202.977 183.431,202.977 186.622,202.977 "
   id="polygon3281"
   style="fill:#ffffff" />
		<polygon
   points="181.988,269.536 178.631,269.521 178.675,202.977 178.675,202.977 181.988,202.977 "
   id="polygon3283"
   style="fill:#ffffff" />
		<path
   d="m 169.006,202.977 h 3.457 v 53.165 c -1.654,-0.552 -1.654,-0.28 -3.457,-0.972 v -52.193 l 0,0 z"
   id="path3285"
   inkscape:connector-curvature="0"
   style="fill:#ffffff" />
		<polygon
   points="177.226,269.536 173.875,269.536 173.875,259.245 174.585,258.891 173.875,257.171 173.96,230.316 173.96,202.977 173.96,202.977 177.27,202.977 "
   id="polygon3287"
   style="fill:#ffffff" />
		<path
   d="m 169.978,265.807 c -0.14,-3.729 1.518,-5.385 2.485,-5.936 v 9.665 l -3.446,0.008 -0.011,-3.187 0.972,-0.55 0,0 z"
   id="path3289"
   inkscape:connector-curvature="0"
   style="fill:#ffffff" />
	</g>
	<g
   id="Sword">
		<path
   d="m 135.454,191.45 c 2.52,-1.501 3.763,-3.172 4.281,-5.937 1.007,-0.378 1.519,1.523 1.519,2.494 -1.795,1.235 -2.067,2.06 -3.038,4 -0.967,0.546 -3.178,0.546 -2.762,-0.557 l 0,0 z"
   id="path3292"
   inkscape:connector-curvature="0"
   style="fill:#ffffff" />
		<path
   d="m 131.478,188.522 c 2.351,-2.206 3.52,-3.016 4.251,-5.849 0.552,-0.827 2.924,0.658 2.486,2.214 0.192,1.466 -1.853,3.767 -3.729,5.386 -1.518,0.926 -3.419,-1.191 -3.008,-1.751 l 0,0 z"
   id="path3294"
   inkscape:connector-curvature="0"
   style="fill:#ffffff" />
		<path
   d="m 127.583,185.305 c 2.41,-2.15 2.502,-2.432 4.02,-5.197 0.416,-1.239 3.71,0.224 2.607,2.016 -0.765,2.516 -1.243,3.038 -3.869,5.252 -1.591,1.029 -3.511,-1.185 -2.758,-2.071 l 0,0 z"
   id="path3296"
   inkscape:connector-curvature="0"
   style="fill:#ffffff" />
		<path
   d="m 124.546,182.123 c 2.761,-2.211 2.486,-2.479 3.453,-4.277 0.552,-0.968 2.759,0.275 2.343,1.523 -1.095,2.289 -1.52,2.754 -3.586,4.548 -0.967,0.971 -3.177,-0.826 -2.21,-1.794 l 0,0 z"
   id="path3298"
   inkscape:connector-curvature="0"
   style="fill:#ffffff" />
		<path
   d="m 121.784,179.369 c 1.244,-1.248 2.583,-2.586 2.958,-3.954 0.566,-0.563 2.397,0.372 2.147,1.176 -0.309,1.861 -1.504,3.141 -3.579,4.388 -0.621,0.435 -1.938,-1.067 -1.526,-1.61 l 0,0 z"
   id="path3300"
   inkscape:connector-curvature="0"
   style="fill:#ffffff" />
		<path
   d="m 122.633,176.967 c -1.286,1.589 -2.611,1.721 -3.688,0.739 -1.457,-1.316 -1.75,-2.534 -0.596,-4.027 1.203,-1.552 2.588,-1.302 4.049,-0.25 1.041,0.746 1.516,1.953 0.235,3.538 l 0,0 z"
   id="path3302"
   inkscape:connector-curvature="0"
   style="fill:#ffffff" />
		<path
   d="m 148.852,176.187 c -0.694,-0.827 -1.247,0.412 -1.247,0.412 0,4.008 -0.963,8.289 -3.173,11.187 -0.559,0.56 -0.559,0.56 0,1.104 0.69,0.411 2.008,0.162 2.144,1.684 0.552,0 0.894,-0.435 0.894,-0.435 2.483,-4.008 4.693,-5.252 8.698,-6.771 0.416,0 0.963,-0.695 0.416,-1.246 -2.212,-1.515 -6.216,-4.001 -7.732,-5.935 l 0,0 z"
   id="path3304"
   inkscape:connector-curvature="0"
   style="fill:#ffffff" />
		<path
   d="m 127.999,202.977 c -0.416,-0.685 0.552,-1.244 0.824,-1.244 3.733,-0.963 7.184,-3.177 9.393,-6.487 0.552,-0.411 0.552,-0.411 0.971,-0.411 1.099,1.515 1.099,1.515 2.483,1.926 0.276,0.553 0,0.973 0,0.973 -3.177,3.448 -4.697,6.215 -4.697,10.215 0,0.553 -0.416,1.244 -0.966,0.691 -1.796,-1.663 -5.665,-4.693 -8.008,-5.663 l 0,0 z"
   id="path3306"
   inkscape:connector-curvature="0"
   style="fill:#ffffff" />
		<path
   d="m 145.395,194.553 c -0.931,1.266 -3.038,1.421 -4.28,0.59 -1.379,-1.516 -1.379,-2.797 -0.691,-4.045 0.97,-1.516 3.111,-1.678 4.354,-0.707 1.243,0.823 1.673,2.721 0.617,4.162 l 0,0 z"
   id="path3308"
   inkscape:connector-curvature="0"
   style="fill:#ffffff" />
		<polygon
   points="216.236,247.308 216.788,247.719 217.206,248.132 217.619,248.542 218.03,248.955 218.311,249.373 218.581,249.785 218.854,250.484 219.002,250.756 219.134,251.169 219.273,251.44 219.273,251.722 219.273,252 219.134,252.278 219.134,252.413 218.854,252.692 218.722,252.823 218.442,252.823 218.161,252.963 217.751,252.963 217.338,252.963 217.06,252.963 216.375,252.823 215.823,252.692 215.404,252.552 214.853,252.413 214.44,252.278 213.883,252 213.47,251.722 212.778,251.169 202.011,242.745 192.347,235.016 192.347,228.389 192.347,228.389 215.684,246.749 "
   id="polygon3310"
   style="fill:#ffffff" />
		<polygon
   points="145.122,197.451 145.122,197.172 145.259,196.9 145.395,196.628 145.532,196.349 145.81,196.068 145.951,195.804 146.362,195.384 146.642,195.104 146.778,194.834 147.054,194.687 147.329,194.413 147.605,194.274 147.746,194.143 148.157,193.861 157.55,201.041 168.042,209.191 168.042,215.679 168.042,215.679 145.122,197.598 "
   id="polygon3312"
   style="fill:#ffffff" />
	</g>
	<g
   id="Anchor">
		<path
   d="m 198.832,189.582 c -0.543,-0.691 0,-2.207 0.973,-2.487 0.822,-0.963 2.485,-0.963 3.456,0 1.096,1.251 0.544,2.487 -0.426,3.457 -1.237,0.824 -2.752,0.824 -3.443,-0.412 l -0.56,-0.558 0,0 z"
   id="path3315"
   inkscape:connector-curvature="0"
   style="fill:#ffffff" />
		<path
   d="m 217.472,212.92 c -0.684,-1.522 -0.684,-2.767 0.418,-3.729 1.112,-0.691 2.767,-0.691 3.318,0.552 0.69,0.971 0.69,2.625 -0.552,3.45 -0.971,0.971 -2.214,0.418 -3.184,-0.273 l 0,0 z"
   id="path3317"
   inkscape:connector-curvature="0"
   style="fill:#ffffff" />
		<polygon
   points="152.578,249.234 152.299,250.057 152.299,251.029 152.713,252 153.266,252.963 154.097,253.928 155.063,254.898 156.858,256 158.099,256.561 159.341,256.825 160.587,256.973 161.687,256.825 162.794,256.281 163.625,255.457 164.589,253.383 165.557,253.383 165.836,253.928 166.111,254.346 166.523,254.752 166.799,255.17 167.075,255.457 167.491,255.861 167.767,256 168.263,256.339 168.778,256.604 169.286,256.825 169.697,256.973 170.212,257.149 170.643,257.288 171.352,257.515 172.463,257.635 172.735,258.349 172.188,258.487 171.801,258.664 171.352,258.898 170.94,259.18 170.665,259.458 170.249,259.871 169.978,260.15 169.565,260.834 169.286,261.252 169.149,261.665 168.87,262.217 168.733,262.769 168.595,263.327 168.595,264.011 168.595,264.842 167.715,265.299 167.767,265.395 166.935,264.842 166.245,264.284 165.557,264.011 164.725,263.593 163.901,263.458 163.209,263.327 162.382,263.18 161.275,263.048 160.587,263.048 159.896,263.048 159.341,263.048 158.789,263.048 158.238,263.048 157.685,262.901 157.13,262.636 156.031,262.077 155.063,261.252 154.097,260.422 153.129,259.59 152.162,258.767 151.338,257.943 150.368,257.112 149.124,256 148.296,255.309 147.469,254.619 146.642,254.074 145.81,253.654 144.983,253.236 144.292,253.103 143.188,252.963 141.945,251.853 142.222,251.169 142.357,250.346 142.357,249.515 142.222,248.688 141.945,247.851 141.669,247.026 141.254,246.203 140.423,244.82 139.871,243.85 139.458,242.88 138.904,241.775 138.356,240.813 137.937,239.709 137.524,238.598 137.249,236.803 137.113,236.392 137.249,235.848 137.249,235.287 137.389,234.596 137.664,234.045 137.805,233.361 137.937,232.67 138.08,231.558 138.216,230.728 138.216,229.904 138.216,229.08 138.08,228.249 137.937,227.551 137.664,226.727 136.972,225.344 137.249,224.381 137.805,224.381 138.356,224.381 138.904,224.381 139.458,224.239 139.871,224.107 140.423,223.961 140.842,223.697 141.529,223.416 141.945,223.137 142.357,222.865 142.772,222.585 143.049,222.306 143.46,221.894 143.873,221.622 144.432,220.931 145.395,221.343 145.395,222.032 145.395,222.725 145.395,223.276 145.532,223.828 145.532,224.52 145.671,225.072 145.81,225.622 146.086,226.446 146.362,227.005 146.502,227.551 146.778,228.109 147.054,228.521 147.469,229.08 147.746,229.633 148.437,230.316 148.157,231.008 146.362,231.155 145.122,231.7 144.152,232.39 143.46,233.361 143.049,234.464 142.913,235.848 143.049,237.223 143.604,239.158 144.016,240.539 144.703,241.644 145.532,242.599 146.362,243.438 147.19,243.85 148.021,243.989 149.4,243.438 159.069,235.979 168.042,228.801 168.042,235.979 168.042,235.979 153.406,248.41 "
   id="polygon3319"
   style="fill:#ffffff" />
		<g
   id="g3321">
			<g
   id="g3323">
				<path
   d="m 232.8,189.729 -0.685,-1.943 -1.794,-2.898 -1.521,-1.519 -1.663,-1.246 -1.648,-0.824 -1.662,-0.415 -1.646,-0.141 -1.662,0.141 -1.516,0.415 -2.214,1.243 -1.244,0.963 -0.97,1.252 -0.825,1.375 -0.412,1.522 -0.146,1.515 0.146,1.662 1.104,2.487 -4.36,2.989 -0.061,-0.091 -0.279,-0.413 -0.552,-0.699 -0.543,-0.552 -0.973,-1.102 -0.691,-0.691 -0.691,-0.561 -0.823,-0.545 -0.691,-0.418 -0.692,-0.139 h -0.55 l -0.698,0.278 -0.414,0.278 -0.131,0.273 v 0.418 0.414 l 0.131,0.559 0.141,0.543 0.273,0.552 0.426,0.971 0.412,0.545 0.271,0.699 0.412,0.544 0.419,0.699 0.412,0.553 0.279,0.542 0.545,0.56 -13.665,10.628 v 7.466 l 17.122,-13.672 0.14,0.271 0.411,0.281 0.273,0.41 0.559,0.413 0.411,0.552 0.552,0.551 0.553,0.552 0.823,0.699 0.692,0.412 0.558,0.412 0.552,0.412 0.552,0.146 0.552,0.133 0.419,-0.133 0.691,-0.42 0.413,-0.279 0.132,-0.412 0.139,-0.551 -0.139,-0.691 -0.279,-0.691 -0.266,-0.823 -0.418,-0.691 -0.692,-1.251 -0.552,-0.691 -0.412,-0.545 -0.411,-0.551 -0.28,-0.28 0.134,-0.14 0.146,-0.132 0.271,-0.279 0.14,-0.28 0.272,-0.132 0.279,-0.279 0.271,-0.281 0.281,-0.271 0.278,-0.272 0.273,-0.28 0.271,-0.131 0.146,-0.279 0.266,-0.143 0.147,-0.277 0.271,-0.271 1.523,1.233 1.654,0.839 1.656,0.413 1.662,0.132 1.655,-0.132 1.521,-0.561 1.515,-0.691 1.796,-1.515 0.963,-1.234 0.699,-1.53 0.545,-1.515 v -1.656 l -0.279,-1.788 z m -6.347,3.854 c -1.244,1.521 -2.349,1.521 -4.011,0.42 -0.544,0 0.429,-1.657 -0.544,-2.905 -0.69,-1.516 -2.765,-0.546 -2.765,-0.958 0,-1.249 0,-2.765 1.522,-3.588 1.786,-1.391 4.553,-0.973 6.215,1.234 1.237,1.796 0.964,4.56 -0.417,5.797 z"
   id="path3325"
   inkscape:connector-curvature="0"
   style="fill:#ffffff" />
			</g>
		</g>
	</g>
</g>
<text
   xml:space="preserve"
   style="font-size:249.00300598px;font-style:normal;font-variant:normal;font-weight:300;font-stretch:normal;text-align:start;line-height:125%;letter-spacing:0px;word-spacing:0px;writing-mode:lr-tb;text-anchor:start;fill:#000000;fill-opacity:1;stroke:none;font-family:Copperplate;-inkscape-font-specification:Copperplate Light"
   x="-157.93747"
   y="178.98497"
   id="text3185"
   sodipodi:linespacing="125%"
   transform="matrix(1.1116965,-0.00289797,0,0.89952605,0,0)"><tspan
     sodipodi:role="line"
     id="tspan3211"
     x="-157.93747"
     y="178.98497">Knights</tspan><tspan
     sodipodi:role="line"
     id="tspan3213"
     x="-157.93747"
     y="490.23871" /></text>


<flowRoot
   xml:space="preserve"
   id="flowRoot3193"
   style="fill:black;stroke:none;stroke-opacity:1;stroke-width:1px;stroke-linejoin:miter;stroke-linecap:butt;fill-opacity:1;font-family:Libra BT;font-style:normal;font-weight:normal;font-size:64px;line-height:125%;letter-spacing:0px;word-spacing:0px;-inkscape-font-specification:Libra BT;font-stretch:normal;font-variant:normal;text-anchor:start;text-align:start;writing-mode:lr"><flowRegion
     id="flowRegion3195"><rect
       id="rect3197"
       width="26.151436"
       height="107.22089"
       x="865.61255"
       y="-134.26215" /></flowRegion><flowPara
     id="flowPara3199" /></flowRoot><path
   style="fill:#000000;fill-opacity:1;stroke:#000000;stroke-width:0.96897048;stroke-linecap:butt;stroke-linejoin:miter;stroke-miterlimit:4;stroke-opacity:1;stroke-dasharray:none"
   d="M -143.28038,170.60883 C 924.19096,169.30126 922.96326,169.95504 922.96326,169.95504"
   id="path3202"
   inkscape:connector-curvature="0" /><text
   xml:space="preserve"
   style="font-size:146.33233643px;font-style:normal;font-variant:normal;font-weight:300;font-stretch:normal;text-align:start;line-height:125%;letter-spacing:0px;word-spacing:0px;writing-mode:lr-tb;text-anchor:start;fill:#000000;fill-opacity:1;stroke:none;font-family:Copperplate;-inkscape-font-specification:Copperplate Light"
   x="-125.64558"
   y="267.43149"
   id="text3972"
   sodipodi:linespacing="125%"
   transform="scale(1.073894,0.93119058)"><tspan
     sodipodi:role="line"
     id="tspan3215"
     x="-125.64558"
     y="267.43149">of Columbus</tspan></text>


<text
   xml:space="preserve"
   style="font-size:60.33469009px;font-style:normal;font-variant:normal;font-weight:300;font-stretch:normal;text-align:start;line-height:125%;letter-spacing:0px;word-spacing:0px;writing-mode:lr-tb;text-anchor:start;fill:#000000;fill-opacity:1;stroke:none;font-family:Copperplate;-inkscape-font-specification:Copperplate Light"
   x="-173.54025"
   y="328.92291"
   id="text3976"
   sodipodi:linespacing="125%"
   transform="scale(0.94272964,1.0607495)"><tspan
     sodipodi:role="line"
     id="tspan3978"
     x="-173.54025"
     y="328.92291">In Service to One.  In Servcie to All.</tspan></text>


</svg>